# xmcd
#
# Track frame offsets: 
#        150
#        20355
#        37242
#        59307
#        75820
#        95732
#        112047
#        135762
#        156480
#        178095
#        185082
#        197397
#        232550
#
# Disc length: 3122 seconds
#
# Revision: 1
# Processed by: cddbd v1.5.2PL0 Copyright (c) Steve Scherf et al.
# Submitted via: ExactAudioCopyFreeDBPlugin 1.0
#
DISCID=9f0c300d
DTITLE=Grace Potter And The Nocturnals - Nothing But The Water
DYEAR=2006
DGENRE=Blues
TTITLE0=Toothbrush And My Table
TTITLE1=Some Kind Of Ride
TTITLE2=Ragged Company
TTITLE3=Left Behind
TTITLE4=Treat Me Right
TTITLE5=Sweet Hands
TTITLE6=Joey
TTITLE7=2:22
TTITLE8=All But One
TTITLE9=Below The Beams
TTITLE10=Nothing But The Water (I)
TTITLE11=Nothing But the Water (II)
TTITLE12=Data Track - Macromedia file with links to band and label web s
TTITLE12=ites
EXTD=YEAR: 2006
EXTT0=
EXTT1=
EXTT2=
EXTT3=
EXTT4=
EXTT5=
EXTT6=
EXTT7=
EXTT8=
EXTT9=
EXTT10=
EXTT11=
EXTT12=
PLAYORDER=
